# xmcd
#
# Track frame offsets:
#	150
#	5162
#	7270
#	9575
#	15025
#	18832
#	20137
#	26502
#	29640
#	31347
#	34985
#	36872
#	39622
#	40782
#	42267
#	45450
#	47645
#	50287
#	52462
#	55162
#	56962
#	58860
#	61080
#	62890
#	66580
#	70790
#	73087
#	76887
#	80242
#	81347
#	82352
#	84107
#	87177
#	88062
#	93405
#	96157
#	98590
#	101004
#	103117
#	105905
#	107240
#	110100
#	114412
#	115905
#	125422
#	129000
#	136447
#	138755
#	145447
#	148745
#	153820
#	166052
#	168722
#	177045
#	179297
#	181877
#	184507
#	186417
#	193077
#	198267
#	203700
#	211480
#	214690
#	217627
#	219832
#	221385
#	223407
#	225887
#	228955
#	234484
#	243540
#	248322
#	252507
#	256030
#	257790
#	266482
#	268610
#	273187
#	274515
#	278240
#	280070
#	286680
#	287802
#	291497
#	293925
#	297632
#	298985
#	301662
#	303287
#	308142
#	312894
#	316405
#	318700
#	324537
#	329710
#	335567
#	343422
#	350302
#
# Disc length: 4715 seconds
#
# Revision: 0
# Processed by: cddbd v1.5.2PL0 Copyright (c) Steve Scherf et al.
# Submitted via: dBpowerAMP V4.0
#
DISCID=c5126962
DTITLE=Janet Davis - You Can Teach Yourself Dobro
DYEAR=1996
DGENRE=Country
TTITLE0=Tuning
TTITLE1=Rhythm 1
TTITLE2=Rhythm 2
TTITLE3=Finding the Melody
TTITLE4=Goodnight Ladies
TTITLE5=Basic Forward Roll
TTITLE6=Basic Roll Patterns
TTITLE7=Lesson 4
TTITLE8=Chord Progressions
TTITLE9=G Chord Licks
TTITLE10=Salty Dog
TTITLE11=Salty Dog (slow)
TTITLE12=G Lick #1
TTITLE13=G Lick #2
TTITLE14=Wabash Cannonball
TTITLE15=Wabash Cannonball with guitar
TTITLE16=G Lick #3
TTITLE17=Cripple Creek
TTITLE18=Cripple Creek (slow)
TTITLE19=Cripple Creek (alternate rhythm)
TTITLE20=Lick #1
TTITLE21=John Hardy
TTITLE22=John Hardy with guitar
TTITLE23=Blackberry Blossom
TTITLE24=Blackberry Blossom (slow)
TTITLE25=Closed Chord Lick #2
TTITLE26=Home in Dixie
TTITLE27=Home in Dixie (slow)
TTITLE28=C Arpeggio
TTITLE29=G Lick #4
TTITLE30=Footprints in the Snow
TTITLE31=Footprints in the Snow (slow)
TTITLE32=The Glissando
TTITLE33=Great Speckled Bird
TTITLE34=Dark Hollow
TTITLE35=Dark Hollow (slow)
TTITLE36=Wabash Cannonball (one string)
TTITLE37=Licks #5, #6, #7
TTITLE38=Wabash Cannonball
TTITLE39=The Vibrato
TTITLE40=John Henry
TTITLE41=Chord Progression #1
TTITLE42=G Lick #7
TTITLE43=Chord Progression #2
TTITLE44=The 'Foggy Mountain' Lick
TTITLE45=Train 45
TTITLE46=D Lick #1
TTITLE47=Sunnyvale Breakdown
TTITLE48=Interchanging Licks
TTITLE49=Train 45
TTITLE50=D Lick #4, Grandfather's Clock
TTITLE51=Interchanging D Licks
TTITLE52=Hamilton County Breakdown
TTITLE53=Substitute for Part B
TTITLE54=Seventh Chords
TTITLE55=Other Alternate for Part B
TTITLE56=Closed Lick #4
TTITLE57=John Hardy
TTITLE58=Train 45
TTITLE59=D Lick, Reuben
TTITLE60=Salt River
TTITLE61=She'll Be Comin' Around the Mountain
TTITLE62=Rolls and Licks
TTITLE63=Lonesome Road Blues
TTITLE64=Roll Patterns and Licks
TTITLE65=Roll in My Sweet Baby's Arms
TTITLE66=The Choke
TTITLE67=John Hardy
TTITLE68=G Major Scale
TTITLE69=Sally Goodin'
TTITLE70=Fisher's Hornpipe
TTITLE71=G Scale Exercise
TTITLE72=Bill Cheatham
TTITLE73=Melodic Style
TTITLE74=Flop Eared Mule
TTITLE75=Single String Technique
TTITLE76=Devil's Dream
TTITLE77=The F Scale
TTITLE78=Red Haired Boy
TTITLE79=The Modal Sound
TTITLE80=Old Joe Clark
TTITLE81=Minor Chords
TTITLE82=Greensleeves
TTITLE83=The Battle of Jericho
TTITLE84=House of the Rising Sun
TTITLE85=Amazing Grace (melody)
TTITLE86=Amazing Grace
TTITLE87=The Tremelo
TTITLE88=Silent Night
TTITLE89=Silent Night (ver 2)
TTITLE90=In the Pines
TTITLE91=In the Pines (ver 2)
TTITLE92=Sailing to Hawaii
TTITLE93=When You and I Were Young, Maggie
TTITLE94=Silver Threads Among the Gold
TTITLE95=Dixie
TTITLE96=Aloha Oe
TTITLE97=Will There Be Any Stars?
EXTD=
EXTT0=
EXTT1=
EXTT2=
EXTT3=
EXTT4=
EXTT5=
EXTT6=
EXTT7=
EXTT8=
EXTT9=
EXTT10=
EXTT11=
EXTT12=
EXTT13=
EXTT14=
EXTT15=
EXTT16=
EXTT17=
EXTT18=
EXTT19=
EXTT20=
EXTT21=
EXTT22=
EXTT23=
EXTT24=
EXTT25=
EXTT26=
EXTT27=
EXTT28=
EXTT29=
EXTT30=
EXTT31=
EXTT32=
EXTT33=
EXTT34=
EXTT35=
EXTT36=
EXTT37=
EXTT38=
EXTT39=
EXTT40=
EXTT41=
EXTT42=
EXTT43=
EXTT44=
EXTT45=
EXTT46=
EXTT47=
EXTT48=
EXTT49=
EXTT50=
EXTT51=
EXTT52=
EXTT53=
EXTT54=
EXTT55=
EXTT56=
EXTT57=
EXTT58=
EXTT59=
EXTT60=
EXTT61=
EXTT62=
EXTT63=
EXTT64=
EXTT65=
EXTT66=
EXTT67=
EXTT68=
EXTT69=
EXTT70=
EXTT71=
EXTT72=
EXTT73=
EXTT74=
EXTT75=
EXTT76=
EXTT77=
EXTT78=
EXTT79=
EXTT80=
EXTT81=
EXTT82=
EXTT83=
EXTT84=
EXTT85=
EXTT86=
EXTT87=
EXTT88=
EXTT89=
EXTT90=
EXTT91=
EXTT92=
EXTT93=
EXTT94=
EXTT95=
EXTT96=
EXTT97=
PLAYORDER=
